<?xml version="1.0" encoding="UTF-8"?>
<svg width="32px" height="32px" viewBox="0 0 32 32" version="1.1" xmlns="http://www.w3.org/2000/svg">
    <title>Wydarzenia w Katowicach</title>
    <g stroke="none" stroke-width="1" fill="none" fill-rule="evenodd">
        <circle fill="#2563EB" cx="16" cy="16" r="16"/>
        <path d="M22,10 L21,10 L21,12 L20,12 L20,10 L12,10 L12,12 L11,12 L11,10 L10,10 C9.45,10 9,10.45 9,11 L9,23 C9,23.55 9.45,24 10,24 L22,24 C22.55,24 23,23.55 23,23 L23,11 C23,10.45 22.55,10 22,10 Z M21,22 L11,22 L11,15 L21,15 L21,22 Z M15,11 L17,11 L17,12 L15,12 L15,11 Z" fill="#FFFFFF" fill-rule="nonzero"/>
    </g>
</svg>